C:\Users\israe\Dropbox\PhDWork\ExperimentalData\subject14\100\P14S100W04_filtered35.mot
nRows=18
nColumns=28

name C:\Users\israe\Dropbox\PhDWork\ExperimentalData\subject14\100\P14S100W04_filtered35.mot
datacolumns 28
datarows 18
range 1.7920000000 1.8090000000
endheader
time	ground_force_1_vx	ground_force_1_vy	ground_force_1_vz	ground_force_1_px	ground_force_1_py	ground_force_1_pz	ground_moment_1_mx	ground_moment_1_my	ground_moment_1_mz	ground_force_2_vx	ground_force_2_vy	ground_force_2_vz	ground_force_2_px	ground_force_2_py	ground_force_2_pz	ground_moment_2_mx	ground_moment_2_my	ground_moment_2_mz	ground_force_3_vx	ground_force_3_vy	ground_force_3_vz	ground_force_3_px	ground_force_3_py	ground_force_3_pz	ground_moment_3_mx	ground_moment_3_my	ground_moment_3_mz
        1.7920000000	        0.0000000000	        0.0000000000	        0.0000000000	        0.1988394961	        0.0000558755	       -0.3004071324	       -0.0000000000	       -0.0000000000	       -0.0000000000	       -0.0000000000	        0.0000000000	        0.0000000000	        0.2029003516	       -0.0000795827	        0.4543649445	        0.0000000000	       -0.0000000000	       -0.0000000000	       -0.0696754386	        0.0000000000	       -0.1744918157	        0.2076431971	        0.0000770316	        1.3583900146	       -0.1210870970	       -0.0060472378	        0.0725559066	
        1.7930000000	        0.0000000000	        0.0000000000	        0.0000000000	        0.1988394961	        0.0000558755	       -0.3004071324	       -0.0000000000	       -0.0000000000	       -0.0000000000	        0.0000000000	        0.0000000000	        0.0000000000	        0.2029003516	       -0.0000795827	        0.4543649445	        0.0000000000	       -0.0000000000	       -0.0000000000	       -0.0896802186	        0.0000000000	       -0.2252124744	        0.2076431971	        0.0000770316	        1.3583900146	       -0.1311693429	       -0.0083211772	        0.0749779158	
        1.7940000000	        0.0000000000	        0.0000000000	        0.0000000000	        0.1988394961	        0.0000558755	       -0.3004071324	       -0.0000000000	       -0.0000000000	       -0.0000000000	        0.0000000000	        0.0000000000	       -0.0000000000	        0.2029003516	       -0.0000795827	        0.4543649445	        0.0000000000	        0.0000000000	       -0.0000000000	       -0.0976362318	        0.0000000000	       -0.2455200686	        0.2076431971	        0.0000770316	        1.3583900146	       -0.1297907943	       -0.0093429120	        0.0719223796	
        1.7950000000	        0.0000000000	        0.0000000000	        0.0000000000	        0.1988394961	        0.0000558755	       -0.3004071324	       -0.0000000000	       -0.0000000000	       -0.0000000000	        0.0000000000	        0.0000000000	       -0.0000000000	        0.2029003516	       -0.0000795827	        0.4543649445	        0.0000000000	        0.0000000000	       -0.0000000000	       -0.0969163711	        0.0000000000	       -0.2439142117	        0.2076431971	        0.0000770316	        1.3583900146	       -0.1207204663	       -0.0094507660	        0.0653408657	
        1.7960000000	        0.0000000000	        0.0000000000	        0.0000000000	        0.1988394961	        0.0000558755	       -0.3004071324	       -0.0000000000	       -0.0000000000	       -0.0000000000	        0.0000000000	        0.0000000000	       -0.0000000000	        0.2029003516	       -0.0000795827	        0.4543649445	        0.0000000000	        0.0000000000	       -0.0000000000	       -0.0903535095	        0.0000000000	       -0.2275368412	        0.2076431971	        0.0000770316	        1.3583900146	       -0.1069983919	       -0.0089316300	        0.0567788523	
        1.7970000000	        0.0000000000	        0.0000000000	        0.0000000000	        0.1988394961	        0.0000558755	       -0.3004071324	       -0.0000000000	       -0.0000000000	       -0.0000000000	        0.0000000000	        0.0000000000	       -0.0000000000	        0.2029003516	       -0.0000795827	        0.4543649445	        0.0000000000	        0.0000000000	       -0.0000000000	       -0.0802364681	        0.0000000000	       -0.2021608440	        0.2076431971	        0.0000770316	        1.3583900146	       -0.0909793244	       -0.0080195074	        0.0474093497	
        1.7980000000	        0.0000000000	        0.0000000000	        0.0000000000	        0.1988394961	        0.0000558755	       -0.3004071324	       -0.0000000000	       -0.0000000000	        0.0000000000	        0.0000000000	        0.0000000000	       -0.0000000000	        0.2029003516	       -0.0000795827	        0.4543649445	        0.0000000000	        0.0000000000	       -0.0000000000	       -0.0683413790	        0.0000000000	       -0.1722681433	        0.2076431971	        0.0000770316	        1.3583900146	       -0.0744053473	       -0.0068978416	        0.0380790631	
        1.7990000000	        0.0000000000	        0.0000000000	       -0.0000000000	        0.1988394961	        0.0000558755	       -0.3004071324	        0.0000000000	       -0.0000000000	        0.0000000000	        0.0000000000	        0.0000000000	       -0.0000000000	        0.2029003516	       -0.0000795827	        0.4543649445	        0.0000000000	        0.0000000000	       -0.0000000000	       -0.0559851032	        0.0000000000	       -0.1411836065	        0.2076431971	        0.0000770316	        1.3583900146	       -0.0584935525	       -0.0057042650	        0.0293601747	
        1.8000000000	       -0.0000000000	        0.0000000000	       -0.0000000000	        0.1988394961	        0.0000558755	       -0.3004071324	        0.0000000000	        0.0000000000	        0.0000000000	        0.0000000000	        0.0000000000	       -0.0000000000	        0.2029003516	       -0.0000795827	        0.4543649445	        0.0000000000	        0.0000000000	       -0.0000000000	       -0.0440902695	        0.0000000000	       -0.1112384450	        0.2076431971	        0.0000770316	        1.3583900146	       -0.0440284497	       -0.0045366924	        0.0216026912	
        1.8010000000	       -0.0000000000	        0.0000000000	       -0.0000000000	        0.1988394961	        0.0000558755	       -0.3004071324	        0.0000000000	        0.0000000000	        0.0000000000	        0.0000000000	        0.0000000000	       -0.0000000000	        0.2029003516	       -0.0000795827	        0.4543649445	        0.0000000000	        0.0000000000	       -0.0000000000	       -0.0332541241	        0.0000000000	       -0.0839433879	        0.2076431971	        0.0000770316	        1.3583900146	       -0.0314517956	       -0.0034599466	        0.0149838979	
        1.8020000000	       -0.0000000000	        0.0000000000	       -0.0000000000	        0.1988394961	        0.0000558755	       -0.3004071324	        0.0000000000	        0.0000000000	        0.0000000000	        0.0000000000	        0.0000000000	       -0.0000000000	        0.2029003516	       -0.0000795827	        0.4543649445	        0.0000000000	        0.0000000000	       -0.0000000000	       -0.0238156501	        0.0000000000	       -0.0601576352	        0.2076431971	        0.0000770316	        1.3583900146	       -0.0209450402	       -0.0025123289	        0.0095527457	
        1.8030000000	       -0.0000000000	        0.0000000000	       -0.0000000000	        0.1988394961	        0.0000558755	       -0.3004071324	        0.0000000000	        0.0000000000	        0.0000000000	        0.0000000000	        0.0000000000	       -0.0000000000	        0.2029003516	       -0.0000795827	        0.4543649445	        0.0000000000	        0.0000000000	       -0.0000000000	       -0.0159173077	        0.0000000000	       -0.0402443583	        0.2076431971	        0.0000770316	        1.3583900146	       -0.0125015971	       -0.0017117401	        0.0052680202	
        1.8040000000	       -0.0000000000	        0.0000000000	       -0.0000000000	        0.1988394961	        0.0000558755	       -0.3004071324	        0.0000000000	        0.0000000000	        0.0000000000	        0.0000000000	        0.0000000000	       -0.0000000000	        0.2029003516	       -0.0000795827	        0.4543649445	        0.0000000000	        0.0000000000	       -0.0000000000	       -0.0095592524	        0.0000000000	       -0.0242073228	        0.2076431971	        0.0000770316	        1.3583900146	       -0.0059876767	       -0.0010611140	        0.0020298970	
        1.8050000000	       -0.0000000000	        0.0000000000	       -0.0000000000	        0.1988394961	        0.0000558755	       -0.3004071324	        0.0000000000	        0.0000000000	        0.0000000000	        0.0000000000	        0.0000000000	       -0.0000000000	        0.2029003516	       -0.0000795827	        0.4543649445	        0.0000000000	        0.0000000000	       -0.0000000000	       -0.0046450510	        0.0000000000	       -0.0118061381	        0.2076431971	        0.0000770316	        1.3583900146	       -0.0011915444	       -0.0005530427	       -0.0002949692	
        1.8060000000	       -0.0000000000	        0.0000000000	       -0.0000000000	        0.1988394961	        0.0000558755	       -0.3004071324	        0.0000000000	        0.0000000000	        0.0000000000	        0.0000000000	        0.0000000000	       -0.0000000000	        0.2029003516	       -0.0000795827	        0.4543649445	        0.0000000000	        0.0000000000	       -0.0000000000	       -0.0010187619	        0.0165298382	       -0.0026497766	        0.2076431971	        0.0000770316	        1.3583900146	        0.0021381627	       -0.0001735638	       -0.0018543156	
        1.8070000000	       -0.0000000000	        0.0000000000	       -0.0000000000	        0.1988394961	        0.0000558755	       -0.3004071324	        0.0000000000	        0.0000000000	        0.0000000000	        0.0000000000	        0.0000000000	       -0.0000000000	        0.2029003516	       -0.0000795827	        0.4543649445	       -0.0000000000	        0.0000000000	        0.0000000000	        0.0015061700	        0.0388739094	        0.0037305150	        0.2076431971	        0.0000770316	        1.3583900146	        0.0042639484	        0.0000948581	       -0.0027963880	
        1.8080000000	       -0.0000000000	        0.0000000000	       -0.0000000000	        0.1988394961	        0.0000558755	       -0.3004071324	        0.0000000000	        0.0000000000	        0.0000000000	        0.0000000000	        0.0000000000	       -0.0000000000	        0.2029003516	       -0.0000795827	        0.4543649445	       -0.0000000000	        0.0000000000	        0.0000000000	        0.0031253836	        0.0516018711	        0.0078268612	        0.2076431971	        0.0000770316	        1.3583900146	        0.0054394246	        0.0002710847	       -0.0032604854	
        1.8090000000	       -0.0000000000	        0.0000000000	       -0.0000000000	        0.1988394961	        0.0000558755	       -0.3004071324	        0.0000000000	        0.0000000000	        0.0000000000	       -0.0000000000	        0.0000000000	       -0.0000000000	        0.2029003516	       -0.0000795827	        0.4543649445	       -0.0000000000	        0.0000000000	        0.0000000000	        0.0040284213	        0.0570058627	        0.0101164038	        0.2076431971	        0.0000770316	        1.3583900146	        0.0058962735	        0.0003736952	       -0.0033711043	
